#!OML:ASF F:\VICON\USERDATA\INSTALL\rory3\rory3.ASF
:FULLY-SPECIFIED
:DEGREES
113
root -10.4042 17.7237 -0.408564 -3.26859 14.6252 3.77018
lowerback 10.5231 -0.461644 -6.31719
upperback 0.507389 -1.37872 -0.28323
thorax -5.23765 -0.528968 3.46594
lowerneck -21.6578 -5.38818 -11.9759
upperneck 30.0544 -6.05801 8.03604
head 14.672 -2.85696 4.2121
rclavicle -6.76132e-014 -1.30204e-014
rhumerus -36.2791 -19.0699 -77.9885
rradius 27.256
rwrist 13.2315
rhand -15.4588 6.73411
rfingers 7.12502
rthumb 10.7222 -22.9723
lclavicle -6.76132e-014 -1.30204e-014
lhumerus -28.0912 -0.604079 85.8529
lradius 39.1037
lwrist -2.24044
lhand -18.5518 27.0531
lfingers 7.12502
lthumb 7.73781 56.8915
rfemur -22.3472 1.37389 10.9234
rtibia 36.6065
rfoot -7.83027 -11.2946
rtoes -6.12705
lfemur 6.13538 -1.88085 -31.8803
ltibia 14.9418
lfoot -9.93321 -7.94481
ltoes 8.56185
114
root -10.3839 17.7195 -0.294825 -3.15432 15.1423 3.76986
lowerback 10.3635 -0.494705 -6.4567
upperback 0.653596 -1.41415 -0.162179
thorax -4.98355 -0.553791 3.6714
lowerneck -21.8706 -5.4749 -12.2147
upperneck 29.9681 -6.09346 8.13559
head 14.7 -2.88014 4.28408
rclavicle -6.67792e-015 2.38542e-015
rhumerus -36.1315 -19.1013 -77.8143
rradius 27.3133
rwrist 13.0795
rhand -15.3977 6.55176
rfingers 7.12502
rthumb 10.7811 -23.1516
lclavicle -6.67792e-015 2.38542e-015
lhumerus -27.6446 -0.670153 86.0206
lradius 39.3659
lwrist -2.39391
lhand -18.3479 27.3097
lfingers 7.12502
lthumb 7.93452 57.1408
rfemur -22.2648 1.60438 10.8113
rtibia 34.0389
rfoot -7.71625 -12.018
rtoes -9.52283
lfemur 6.50736 -1.99035 -31.8379
ltibia 14.8437
lfoot -10.2258 -8.32283
ltoes 8.04291
115
root -10.3637 17.7111 -0.181449 -3.06674 15.6067 3.81621
lowerback 10.3014 -0.532264 -6.5738
upperback 0.786561 -1.46294 -0.0849655
thorax -4.79812 -0.584014 3.82204
lowerneck -22.1731 -5.52335 -12.4121
upperneck 29.8997 -6.06644 8.20752
head 14.7439 -2.87411 4.34989
rclavicle 4.2453e-014 -8.94531e-015
rhumerus -35.9623 -19.1658 -77.6577
rradius 27.2947
rwrist 13.0916
rhand -15.4558 6.4729
rfingers 7.12502
rthumb 10.7251 -23.2333
lclavicle 4.2453e-014 -8.94531e-015
lhumerus -27.264 -0.723235 86.1478
lradius 39.6772
lwrist -2.32623
lhand -18.273 27.2855
lfingers 7.12502
lthumb 8.0069 57.1139
rfemur -22.1655 1.76812 10.6592
rtibia 31.5656
rfoot -7.29982 -12.251
rtoes -11.9278
lfemur 6.94774 -2.11009 -31.8462
ltibia 14.7367
lfoot -10.4611 -8.58826
ltoes 7.2735
116
root -10.3427 17.6997 -0.067838 -3.0781 16.073 3.72803
lowerback 10.3728 -0.567385 -6.47813
upperback 0.854748 -1.4982 -0.033394
thorax -4.763 -0.605588 3.82803
lowerneck -22.2923 -5.5348 -12.4599
upperneck 29.827 -6.03474 8.18675
head 14.7344 -2.86487 4.35205
rclavicle 2.87492e-014 9.93923e-017
rhumerus -35.959 -19.3171 -77.4971
rradius 27.2443
rwrist 13.1765
rhand -15.5228 6.75689
rfingers 7.12502
rthumb 10.6605 -22.9527
lclavicle 2.87492e-014 9.93923e-017
lhumerus -27.0452 -0.866977 86.2246
lradius 39.8428
lwrist -2.05375
lhand -18.1794 27.6937
lfingers 7.12502
lthumb 8.09718 57.5185
rfemur -21.983 1.98557 10.6298
rtibia 29.2701
rfoot -7.05337 -11.8684
rtoes -12.6183
lfemur 7.48671 -2.26974 -31.7138
ltibia 14.5653
lfoot -10.5268 -8.85728
ltoes 7.32871
117
root -10.3198 17.6896 0.0459848 -2.9655 16.6203 3.81452
lowerback 10.3815 -0.609546 -6.55076
upperback 0.828474 -1.56403 -0.0316082
thorax -4.78625 -0.635044 3.88048
lowerneck -22.1125 -5.54177 -12.5065
upperneck 29.715 -6.05104 8.20968
head 14.65 -2.8752 4.363
rclavicle 3.96948e-015 -8.94531e-016
rhumerus -36.1255 -19.2272 -77.3871
rradius 27.2551
rwrist 13.014
rhand -15.5839 6.80157
rfingers 7.12502
rthumb 10.6015 -22.911
lclavicle 3.96948e-015 -8.94531e-016
lhumerus -26.9902 -1.02001 86.3139
lradius 39.9453
lwrist -1.94402
lhand -18.2408 27.8715
lfingers 7.12502
lthumb 8.03798 57.6986
rfemur -21.9106 1.93439 10.409
rtibia 27.1796
rfoot -7.18799 -10.8052
rtoes -12.7285
lfemur 7.9774 -2.4644 -31.773
ltibia 14.3754
lfoot -10.6634 -9.15079
ltoes 7.03076
118
root -10.297 17.6776 0.159202 -2.80711 17.2916 4.02405
lowerback 10.4424 -0.635748 -6.6881
upperback 0.772382 -1.62558 -0.110906
thorax -4.87123 -0.658694 3.88528
lowerneck -21.7817 -5.5618 -12.2353
upperneck 29.4399 -6.13963 7.99575
head 14.4467 -2.91272 4.1991
rclavicle -3.19267e-014 9.14409e-015
rhumerus -36.2806 -19.2956 -77.2959
rradius 27.1126
rwrist 12.6743
rhand -15.5424 6.692
rfingers 7.12502
rthumb 10.6416 -23.0185
lclavicle -3.19267e-014 9.14409e-015
lhumerus -26.9125 -1.40317 86.3964
lradius 40.0168
lwrist -1.9204
lhand -18.2903 27.7273
lfingers 7.12502
lthumb 7.99016 57.5563
rfemur -21.823 1.70358 10.051
rtibia 25.2531
rfoot -7.53603 -9.21
rtoes -13.3244
lfemur 8.4236 -2.77389 -31.9633
ltibia 14.237
lfoot -10.7464 -9.4632
ltoes 6.88155
119
root -10.2771 17.6709 0.274705 -2.65425 17.9422 4.09245
lowerback 10.368 -0.700402 -6.73225
upperback 0.785979 -1.71199 -0.153126
thorax -4.80535 -0.703382 3.87521
lowerneck -21.4433 -5.46749 -11.6509
upperneck 29.0063 -6.08116 7.52472
head 14.1308 -2.88553 3.90003
rclavicle -2.41461e-014 -3.67752e-015
rhumerus -36.3376 -19.2314 -77.3655
rradius 27.0341
rwrist 12.0772
rhand -15.6942 6.93505
rfingers 7.12502
rthumb 10.4951 -22.783
lclavicle -2.41461e-014 -3.67752e-015
lhumerus -26.7145 -1.61223 86.3952
lradius 40.1294
lwrist -2.18099
lhand -18.0337 28.0313
lfingers 7.12502
lthumb 8.23785 57.8507
rfemur -21.7642 1.69571 9.82596
rtibia 23.4694
rfoot -8.08608 -7.38869
rtoes -14.1412
lfemur 8.7798 -3.03854 -31.9646
ltibia 14.1499
lfoot -10.7829 -9.86851
ltoes 7.41875
120
root -10.2567 17.663 0.389836 -2.58721 18.3786 3.95943
lowerback 10.3353 -0.739468 -6.62047
upperback 0.786813 -1.74517 -0.0914508
thorax -4.78354 -0.722341 3.88076
lowerneck -21.2273 -5.38085 -11.5377
upperneck 28.8025 -5.99264 7.47135
head 13.9778 -2.84289 3.87076
rclavicle 6.36111e-015 1.76918e-014
rhumerus -36.4528 -19.2881 -77.2001
rradius 27.0909
rwrist 12.7559
rhand -15.5663 6.60943
rfingers 7.12502
rthumb 10.6185 -23.1023
lclavicle 6.36111e-015 1.76918e-014
lhumerus -26.7511 -1.65569 86.4095
lradius 40.4242
lwrist -2.47327
lhand -17.3058 28.4115
lfingers 7.12502
lthumb 8.94027 58.2021
rfemur -21.7295 1.9316 9.84747
rtibia 21.8257
rfoot -8.63539 -5.39695
rtoes -15.5627
lfemur 9.1307 -3.27172 -31.7659
ltibia 14.1497
lfoot -10.9196 -10.1033
ltoes 7.6267
121
root -10.2334 17.6504 0.504889 -2.61884 18.7949 3.82337
lowerback 10.4065 -0.776677 -6.48488
upperback 0.843434 -1.77698 0.0014294
thorax -4.76087 -0.742031 3.90759
lowerneck -21.3955 -5.38733 -11.7473
upperneck 28.8554 -5.95508 7.62533
head 14.0468 -2.82607 3.97823
rclavicle 3.67006e-014 1.16289e-014
rhumerus -36.3123 -19.2354 -77.0822
rradius 26.7962
rwrist 13.0613
rhand -15.8814 6.6826
rfingers 7.12502
rthumb 10.3146 -23.0445
lclavicle 3.67006e-014 1.16289e-014
lhumerus -26.6235 -1.71122 86.5084
lradius 40.5137
lwrist -2.37495
lhand -17.0616 28.8512
lfingers 7.12502
lthumb 9.17592 58.6316
rfemur -21.5736 2.43227 9.81019
rtibia 20.3225
rfoot -9.15187 -3.45028
rtoes -17.4609
lfemur 9.50723 -3.48348 -31.583
ltibia 14.2945
lfoot -11.1412 -10.2926
ltoes 7.11566
